SplineFontDB: 3.0
FontName: SidraIcons
FullName: SidraIcons
FamilyName: SidraIcons
Weight: Book
Copyright: SIL Open Font License (OFL)
Version: 1.0
ItalicAngle: 0
UnderlinePosition: -234
UnderlineWidth: 1171
Ascent: 960
Descent: 240
InvalidEm: 0
sfntRevision: 0x00010000
LayerCount: 2
Layer: 0 1 "Back" 1
Layer: 1 0 "Fore" 1
XUID: [1021 375 1256930091 6946]
StyleMap: 0x0040
FSType: 0
OS2Version: 4
OS2_WeightWidthSlopeOnly: 0
OS2_UseTypoMetrics: 0
CreationTime: 1445528290
ModificationTime: 1494426189
PfmFamily: 81
TTFWeight: 400
TTFWidth: 5
LineGap: 0
VLineGap: 0
Panose: 0 0 0 0 0 0 0 0 0 0
OS2TypoAscent: 1200
OS2TypoAOffset: 0
OS2TypoDescent: 0
OS2TypoDOffset: 0
OS2TypoLinegap: 0
OS2WinAscent: 1200
OS2WinAOffset: 0
OS2WinDescent: 0
OS2WinDOffset: 0
HheadAscent: 1200
HheadAOffset: 0
HheadDescent: 0
HheadDOffset: 0
OS2SubXSize: 94
OS2SubYSize: 94
OS2SubXOff: 94
OS2SubYOff: 94
OS2SupXSize: 94
OS2SupYSize: 94
OS2SupXOff: 94
OS2SupYOff: 94
OS2StrikeYSize: 94
OS2StrikeYPos: 469
OS2CapHeight: 1200
OS2XHeight: 1200
OS2Vendor: 'Bird'
OS2CodePages: 00000001.00000000
OS2UnicodeRanges: 00000000.02000000.00000000.00000000
Lookup: 4 0 0 "'clig' Contextual Ligatures lookup 0" { "'clig' Contextual Ligatures lookup 0 subtable"  } [' RQD' ('DFLT' <'dflt' > ) 'clig' ('DFLT' <'dflt' > ) ]
Lookup: 258 0 0 "'kern' Horizontal Kerning lookup 0" { "'kern' Horizontal Kerning lookup 0 subtable"  } [' RQD' ('DFLT' <'dflt' > ) 'kern' ('DFLT' <'dflt' > ) ]
MarkAttachClasses: 1
DEI: 91125
LangName: 1033 "" "" "Regular" "" "" "Version 1.0" "" "" "" "" "" "" "" "" "" "" "Typeface" "Regular"
GaspTable: 1 65535 2 0
Encoding: UnicodeFull
UnicodeInterp: none
NameList: AGL For New Fonts
DisplaySize: -72
AntiAlias: 1
FitToEm: 0
WidthSeparation: 180
WinInfo: 57336 8 7
BeginPrivate: 0
EndPrivate
Grid
1205 1560 m 0
 1205 -840 l 1024
  Named: "fim"
854 1560 m 0
 854 -840 l 1024
  Named: "x4"
770 1560 m 0
 770 -840 l 1024
  Named: "x3"
425 1560 m 0
 425 -840 l 1024
  Named: "x2"
341 1554 m 0
 341 -846 l 1024

StartChar: .notdef
Encoding: 1114112 -1 0
Width: 635
Flags: MW
LayerCount: 2
Fore
SplineSet
61 120 m 1
 181 120 181 120 420 120 c 1
 420 329 420 329 420 743 c 1
 300 743 300 743 61 743 c 1
 61 691 61 691 61 586 c 0
 61 432 61 432 61 120 c 1
0 804 m 1
 159 804 159 804 480 804 c 1
 480 556 480 556 480 61 c 1
 398 61 398 61 239 61 c 0
 159 61 159 61 0 61 c 1
 0 307 0 307 0 804 c 1
EndSplineSet
Validated: 1
EndChar

StartChar: splitter
Encoding: 57345 57345 1
Width: 1197
Flags: MW
LayerCount: 2
Fore
SplineSet
1010 464 m 1
 894 464 318 464 202 464 c 1
 202 249 l 1
 -110 594 l 1
 202 894 l 1
 202 680 l 1
 1010 682 l 0
 1010 896 l 1
 1309 596 l 1
 1010 251 l 1
 1010 464 l 1
499 1154 m 1
 643 1154 643 1154 690 1154 c 1
 690 834 690 880 690 772 c 1
 550 772 550 772 499 772 c 1
 499 1093 499 1047 499 1154 c 1
496 380 m 1
 640 380 640 380 688 380 c 1
 688 60 688 106 688 -2 c 1
 548 -2 548 -2 496 -2 c 1
 496 319 496 273 496 380 c 1
EndSplineSet
Validated: 513
EndChar

StartChar: checkbox
Encoding: 57346 57346 2
Width: 1198
VWidth: 0
Flags: MW
LayerCount: 2
Fore
SplineSet
1089 981 m 2
 1089 1030 1046 1091 980 1091 c 2
 216 1091 l 2
 143 1091 107 1024 107 981 c 2
 107 218 l 2
 107 175 160 109 216 109 c 2
 980 109 l 2
 1025 109 1089 152 1089 218 c 2
 1089 981 l 2
216 1201 m 2
 980 1201 l 2
 1090 1201 1198 1089 1198 981 c 2
 1198 218 l 2
 1198 111 1090 0 980 0 c 2
 216 0 l 2
 109 0 -2 108 -2 218 c 2
 -2 981 l 2
 -2 1090 108 1201 216 1201 c 2
EndSplineSet
Validated: 1
EndChar

StartChar: checkmark
Encoding: 57347 57347 3
Width: 1200
VWidth: 0
Flags: MW
LayerCount: 2
Fore
SplineSet
559 230 m 2
 544 210 512 206 500 206 c 0
 484 206 456 213 439 232 c 2
 184 504 l 1
 357 689 l 1
 495 523 l 1
 840 972 l 1
 1004 840 l 1
 559 230 l 2
EndSplineSet
Validated: 1
EndChar

StartChar: indeterminatemark
Encoding: 57348 57348 4
Width: 1200
VWidth: 0
Flags: MW
LayerCount: 2
Fore
SplineSet
313 700 m 5
 889 700 l 13
 889 500 l 21
 313 500 l 5
 313 700 l 5
EndSplineSet
Validated: 1
EndChar

StartChar: uniE005
Encoding: 57349 57349 5
Width: 1200
VWidth: 0
Flags: MW
LayerCount: 2
Fore
SplineSet
189 630 m 29
 461 748 l 25
 631 500 l 25
 189 630 l 29
EndSplineSet
Validated: 1
EndChar

StartChar: uniE006
Encoding: 57350 57350 6
Width: 1200
VWidth: 0
Flags: MW
LayerCount: 2
Fore
SplineSet
189 630 m 29
 461 748 l 25
 631 500 l 25
 189 630 l 29
EndSplineSet
Validated: 1
EndChar

StartChar: uniE007
Encoding: 57351 57351 7
Width: 1200
VWidth: 0
Flags: MW
LayerCount: 2
Fore
SplineSet
189 630 m 29
 461 748 l 25
 631 500 l 25
 189 630 l 29
EndSplineSet
Validated: 1
EndChar

StartChar: radio
Encoding: 57354 57354 10
Width: 1200
VWidth: 0
Flags: MW
LayerCount: 2
Fore
SplineSet
601 1057 m 0
 355 1057 148 858 148 618 c 0
 148 349 331 148 600 148 c 0
 857 148 1054 362 1054 617 c 0
 1054 864 847 1057 601 1057 c 0
0 614 m 0
 0 938 257 1200 597 1200 c 0
 955 1200 1200 950 1200 620 c 0
 1200 250 939 0 603 0 c 0
 267 0 0 254 0 614 c 0
EndSplineSet
Validated: 1
EndChar

StartChar: radiomark
Encoding: 57355 57355 11
Width: 1200
VWidth: 0
Flags: M
LayerCount: 2
Fore
SplineSet
607 900 m 0
 789 900 901 761 901 600 c 0
 901 420 760 300 599 300 c 0
 433 300 300 425 300 600 c 0
 300 737 413 900 607 900 c 0
EndSplineSet
Validated: 1
EndChar

StartChar: uniE00D
Encoding: 57357 57357 13
Width: 1200
VWidth: 0
LayerCount: 2
Fore
SplineSet
189 630 m 29
 461 748 l 25
 631 500 l 25
 189 630 l 29
EndSplineSet
Validated: 1
EndChar

StartChar: uniE00E
Encoding: 57358 57358 14
Width: 1200
VWidth: 0
LayerCount: 2
Fore
SplineSet
189 630 m 29
 461 748 l 25
 631 500 l 25
 189 630 l 29
EndSplineSet
Validated: 1
EndChar

StartChar: uniE00F
Encoding: 57359 57359 15
Width: 1200
VWidth: 0
LayerCount: 2
Fore
SplineSet
189 630 m 29
 461 748 l 25
 631 500 l 25
 189 630 l 29
EndSplineSet
Validated: 1
EndChar

StartChar: uniE010
Encoding: 57360 57360 16
Width: 1200
VWidth: 0
Flags: W
HStem: 12 193<431.68 766.491> 530 148<551.679 646.398> 1020 172<510.315 687.548>
VStem: 9 262<298.5 765> 929 260<294.5 765>
LayerCount: 2
Fore
SplineSet
520 616 m 0
 423 611 375 596 334 559 c 0
 297 526 271 391 271 313 c 3
 271 284 274 263 282 257 c 0
 321 228 449 205 599 205 c 3
 730 205 885 224 917 252 c 0
 925 259 929 280 929 309 c 3
 929 389 902 525 866 560 c 0
 832 592 804 606 678 613 c 0
 678 613 653 530 599 530 c 0
 542 530 520 616 520 616 c 0
430 849 m 0
 430 754 506 678 599 678 c 0
 692 678 767 754 767 849 c 0
 767 944 692 1020 599 1020 c 0
 506 1020 430 944 430 849 c 0
9 602 m 0
 9 928 273 1192 599 1192 c 0
 925 1192 1189 928 1189 602 c 0
 1189 276 925 12 599 12 c 0
 273 12 9 276 9 602 c 0
EndSplineSet
Validated: 1
EndChar

StartChar: uniE012
Encoding: 57362 57362 17
Width: 1200
VWidth: 0
LayerCount: 2
Fore
SplineSet
189 630 m 29
 461 748 l 25
 631 500 l 25
 189 630 l 29
EndSplineSet
Validated: 1
EndChar

StartChar: uniE011
Encoding: 57361 57361 18
Width: 1200
VWidth: 0
LayerCount: 2
Fore
SplineSet
189 630 m 29
 461 748 l 25
 631 500 l 25
 189 630 l 29
EndSplineSet
Validated: 1
EndChar

StartChar: uniE013
Encoding: 57363 57363 19
Width: 1200
VWidth: 0
LayerCount: 2
Fore
SplineSet
189 630 m 29
 461 748 l 25
 631 500 l 25
 189 630 l 29
EndSplineSet
Validated: 1
EndChar

StartChar: uniE014
Encoding: 57364 57364 20
Width: 1200
VWidth: 0
LayerCount: 2
Fore
SplineSet
189 630 m 29
 461 748 l 25
 631 500 l 25
 189 630 l 29
EndSplineSet
Validated: 1
EndChar

StartChar: uniE015
Encoding: 57365 57365 21
Width: 1200
VWidth: 0
LayerCount: 2
Fore
SplineSet
189 630 m 29
 461 748 l 25
 631 500 l 25
 189 630 l 29
EndSplineSet
Validated: 1
EndChar

StartChar: graph
Encoding: 57366 57366 22
Width: 1200
VWidth: 0
Flags: HMW
LayerCount: 2
Fore
SplineSet
917 524 m 5
 716 524 l 5
 716 73 l 5
 917 73 l 5
 917 524 l 5
644 0 m 5
 644 552 l 5
 644 578 665 600 691 600 c 5
 917 600 l 5
 917 969 l 5
 917 996 939 1018 966 1018 c 5
 1148 1018 l 5
 1177 1018 1200 996 1200 969 c 5
 1200 630 1200 339 1200 0 c 5
 644 0 l 5
278 362 m 29
 71 362 l 5
 71 76 l 5
 278 76 l 5
 278 362 l 29
0 386 m 7
 0 412 22 434 48 434 c 7
 151 434 278 434 278 434 c 5
 278 434 278 690 278 839 c 5
 278 866 300 888 326 888 c 5
 420 888 413 888 507 888 c 7
 534 888 556 866 556 839 c 7
 556 502 556 0 556 0 c 5
 0 0 l 5
 0 0 0 209 0 386 c 7
EndSplineSet
Validated: 1
EndChar

StartChar: graphStack
Encoding: 57367 57367 23
Width: 1200
VWidth: 0
Flags: HMW
LayerCount: 2
Fore
SplineSet
1123 881 m 1
 928 881 l 1
 928 492 l 1
 1123 492 l 1
 1123 881 l 1
698 556 m 1
 503 556 l 1
 501 266 l 1
 696 266 l 1
 698 556 l 1
265 756 m 1
 78 756 l 1
 78 374 l 1
 265 374 l 1
 265 756 l 1
426 0 m 1
 426 600 l 1
 426 619 443 634 464 634 c 1
 732 634 l 1
 754 634 772 619 772 600 c 1
 770 0 l 1
 426 0 l 1
0 0 m 1
 0 792 l 1
 0 815 17 834 39 834 c 1
 304 834 l 1
 324 834 341 815 341 792 c 1
 341 0 l 1
 0 0 l 1
851 0 m 1
 851 923 l 1
 851 945 869 962 891 962 c 1
 1160 962 l 1
 1182 962 1200 945 1200 923 c 1
 1200 737 1200 190 1200 0 c 1
 851 0 l 1
EndSplineSet
Validated: 1
EndChar

StartChar: graphExtend
Encoding: 57368 57368 24
Width: 1200
VWidth: 0
Flags: HMW
LayerCount: 2
Fore
SplineSet
1123 1120 m 1
 931 1120 l 1
 931 780 l 1
 1123 780 l 1
 1123 1120 l 1
692 1123 m 1
 498 1123 l 1
 498 346 l 1
 692 346 l 1
 692 1123 l 1
265 1123 m 1
 78 1123 l 1
 78 640 l 1
 265 640 l 1
 265 1123 l 1
425 0 m 1
 425 1160 l 1
 425 1183 443 1201 465 1201 c 1
 733 1201 l 1
 753 1201 770 1183 770 1160 c 1
 770 0 l 1
 425 0 l 1
0 0 m 1
 0 1162 l 1
 0 1184 18 1201 40 1201 c 1
 304 1201 l 1
 324 1201 341 1184 341 1162 c 1
 341 0 l 1
 0 0 l 1
854 0 m 1
 854 1161 l 1
 854 1183 872 1201 895 1201 c 1
 1162 1201 l 1
 1183 1201 1200 1183 1200 1161 c 1
 1200 975 1200 190 1200 0 c 1
 854 0 l 1
EndSplineSet
Validated: 1
EndChar

StartChar: summation
Encoding: 8721 8721 25
Width: 1200
VWidth: 0
UnlinkRmOvrlpSave: 1
Flags: HMW
LayerCount: 2
Fore
SplineSet
1072 1201 m 1
 1073 1114 1081 1012 1095 824 c 1
 995 816 l 1
 986 898 962 997 890 1004 c 2
 372 1004 l 1
 683 630 l 1
 394 252 l 1
 874 252 l 2
 980 253 979 296 1012 395 c 1
 1118 383 l 1
 1092 170 1080 82 1078 0 c 1
 723 0 369 0 14 0 c 1
 14 70 l 1
 460 647 l 1
 81 1100 l 1
 81 1201 l 1
 411 1201 742 1201 1072 1201 c 1
EndSplineSet
EndChar

StartChar: uniE01A
Encoding: 57370 57370 30
Width: 1207
VWidth: 0
Flags: W
HStem: -2 68<69 370> 126 172<132 309> 232 90<630 888> 364 62<69 370> 384 92<719 816> 486 82<330 420> 630 84<93 630> 770 67<69 370 842 1145> 904 170<132 309 903 1078> 1138 62<69 370 842 1145>
VStem: 0 69<66 364 837 1138> 132 177<128 298 904 1074> 330 90<486 568> 370 62<66 364 837 1138> 483 87<772 939 1029 1119> 630 89<476 630 714 899> 777 65<837 1138> 890 80<84 232> 903 175<904 1074> 1145 62<837 1138>
LayerCount: 2
Fore
SplineSet
330 568 m 25x87fb90
 420 568 l 1
 420 486 l 25
 330 486 l 1
 330 568 l 25x87fb90
968 84 m 1
 888 84 l 1
 888 232 l 1
 630 235 l 1
 630 322 l 1
 968 322 l 1xa7f390
 968 84 l 1
630 384 m 1x8ff390
 630 630 l 1
 93 630 l 1
 93 714 l 1
 630 714 l 1
 630 899 l 1
 719 899 l 1
 719 476 l 25
 816 474 l 1
 816 386 l 1
 630 384 l 1x8ff390
1025 568 m 1
 1025 85 l 1
 1135 85 l 1
 1135 568 l 1
 1025 568 l 1
779 714 m 1
 779 629 l 1
 890 629 l 25
 890 385 l 1
 970 386 l 1
 970 629 l 1x87f3d0
 1141 632 l 1
 1141 717 l 25
 779 714 l 1
488 1119 m 25
 575 1119 l 1
 575 1029 l 1
 719 1029 l 1
 720 939 l 1
 575 939 l 1
 575 772 l 1
 488 772 l 1
 488 1119 l 25
630 178 m 1
 630 90 l 1
 835 90 l 1
 835 178 l 1
 630 178 l 1
483 570 m 25
 483 150 l 1
 570 150 l 1
 570 570 l 1
 483 570 l 25
87 568 m 1
 87 486 l 1
 262 486 l 25
 262 568 l 25
 87 568 l 1
903 1074 m 1x87f3b0
 1078 1074 l 1
 1078 904 l 1
 903 904 l 1
 903 1074 l 1x87f3b0
132 298 m 1xc7f390
 309 298 l 1
 309 128 l 1
 132 126 l 1
 132 298 l 1xc7f390
132 1074 m 1
 309 1074 l 1
 309 904 l 1
 132 904 l 1
 132 1074 l 1
1145 1138 m 1
 842 1138 l 1
 842 837 l 1
 1145 837 l 1
 1145 1138 l 1
69 364 m 1x97f790
 69 66 l 1
 370 66 l 1
 370 364 l 1
 69 364 l 1x97f790
370 1138 m 1
 69 1138 l 1
 69 837 l 1
 370 837 l 1
 370 1138 l 1
0 -2 m 1
 0 426 l 1
 432 428 l 1
 432 0 l 1
 0 -2 l 1
777 1200 m 1
 1206 1200 l 1
 1207 770 l 1
 777 770 l 25
 777 1200 l 1
0 1198 m 1
 432 1200 l 1
 432 770 l 1
 0 768 l 1
 0 1198 l 1
EndSplineSet
Validated: 9
EndChar

StartChar: uniE025
Encoding: 57381 57381 31
Width: 1200
VWidth: 0
Flags: W
LayerCount: 2
Fore
SplineSet
297 1200 m 5
 900 593 l 5
 297 6 l 5
 297 352 l 5
 572 593 l 5
 297 881 l 5
 297 1200 l 5
297 1200 m 29
 297 1200 l 29
811 470 m 1053
EndSplineSet
Validated: 1
EndChar

StartChar: uniE026
Encoding: 57382 57382 32
Width: 1200
VWidth: 0
Flags: WO
LayerCount: 2
Fore
SplineSet
900 1201 m 5
 297 594 l 5
 900 7 l 5
 900 353 l 5
 625 594 l 5
 900 882 l 5
 900 1201 l 5
900 1201 m 29
 900 1201 l 29
386 471 m 1053
EndSplineSet
EndChar
